<?xml version="1.0" encoding="utf-8"?>
<!-- Generator: Adobe Illustrator 24.1.2, SVG Export Plug-In . SVG Version: 6.00 Build 0)  -->
<svg version="1.1" id="Layer_1" xmlns="http://www.w3.org/2000/svg" xmlns:xlink="http://www.w3.org/1999/xlink" x="0px" y="0px"
	 viewBox="0 0 512 512" style="enable-background:new 0 0 512 512;" xml:space="preserve">
<style type="text/css">
	.st0{fill:#32AFB2;}
	.st1{font-family:'MyriadPro-Regular';}
	.st2{font-size:36.0894px;}
</style>
<g>
	<g id="Cash">
		<path class="st0" d="M112,464H56c-4.4,0-8,3.6-8,8s3.6,8,8,8h56c4.4,0,8-3.6,8-8S116.4,464,112,464z"/>
		<path class="st0" d="M144,464h-7c-4.4,0-8,3.6-8,8s3.6,8,8,8h7c4.4,0,8-3.6,8-8S148.4,464,144,464z"/>
		<path class="st0" d="M262.7,280.2c0.9-0.1,1.8-0.2,2.6-0.2h-3.3c0,0,0,0,0,0C262.3,280.1,262.5,280.1,262.7,280.2z"/>
		<path class="st0" d="M480,144H312V48c0-22.1-17.9-40-40-40H64C41.9,8,24,25.9,24,48v416c0,22.1,17.9,40,40,40h208
			c22.1,0,40-17.9,40-40v-96h168c4.4,0,8-3.6,8-8V152C488,147.6,484.4,144,480,144z M152,160h264.5c3.7,29,26.5,51.8,55.5,55.5v81
			c-29,3.7-51.8,26.5-55.5,55.5H152V160z M472,199.3c-20.1-3.4-35.9-19.2-39.3-39.3H472V199.3z M213.8,24l-4,16h-83.5l-4-16H213.8z
			 M296,464c0,13.2-10.8,24-24,24H64c-13.2,0-24-10.8-24-24V48c0-13.2,10.8-24,24-24h41.8l6.5,25.9c0.9,3.6,4.1,6.1,7.8,6.1h96
			c3.7,0,6.9-2.5,7.8-6.1l6.5-25.9H272c13.2,0,24,10.8,24,24v96H152v-32c0-4.4-3.6-8-8-8s-8,3.6-8,8v280c0,4.4,3.6,8,8,8s8-3.6,8-8
			v-24h144V464z M432.7,352c3.4-20.1,19.2-35.9,39.3-39.3V352H432.7z"/>
		<path class="st0" d="M280,184c-39.8,0-72,32.2-72,72s32.2,72,72,72s72-32.2,72-72C352,216.3,319.7,184,280,184z M280,312
			c-30.9,0-56-25.1-56-56s25.1-56,56-56s56,25.1,56,56C336,286.9,310.9,312,280,312z"/>
	</g>
	<text transform="matrix(1.1233 0 0 1 237.4577 267.9716)" class="st0 st1 st2">FCFA</text>
</g>
<rect x="323.3" y="116" class="st0" width="129" height="10"/>
<polygon class="st0" points="476.8,121 451.8,103 451.8,139 "/>
</svg>
