<?xml version="1.0" encoding="utf-8"?>
<!-- Generator: Adobe Illustrator 24.1.2, SVG Export Plug-In . SVG Version: 6.00 Build 0)  -->
<svg version="1.1" id="Capa_1" xmlns="http://www.w3.org/2000/svg" xmlns:xlink="http://www.w3.org/1999/xlink" x="0px" y="0px"
	 viewBox="0 0 512 512" style="enable-background:new 0 0 512 512;" xml:space="preserve">
<style type="text/css">
	.st0{fill:#828282;}
</style>
<g>
	<g>
		<g>
			<g>
				<path class="st0" d="M153.6,409.6c-28.3,0-50.9,22.9-50.9,51.2s22.7,51.2,50.9,51.2s51.2-22.9,51.2-51.2
					S181.9,409.6,153.6,409.6z"/>
				<path class="st0" d="M409.6,409.6c-28.3,0-50.9,22.9-50.9,51.2s22.7,51.2,50.9,51.2c28.3,0,51.2-22.9,51.2-51.2
					S437.9,409.6,409.6,409.6z"/>
				<path class="st0" d="M181.8,281.6h190.7c19.2,0,36-10.6,44.8-26.4l91.5-166.1c2-3.6,3.2-7.8,3.2-12.3
					c0-14.2-11.5-25.6-25.6-25.6H107.9L83.6,0H0v51.2h51.2l92,194.2l-34.6,62.7c-4,7.4-6.3,15.7-6.3,24.7
					c0,28.3,22.9,51.2,51.2,51.2h307.2v-51.2H164.5c-3.6,0-6.4-2.8-6.4-6.4c0-1.2,0.3-2.2,0.8-3.1L181.8,281.6z"/>
			</g>
		</g>
	</g>
</g>
</svg>
